<?xml version="1.0" encoding="UTF-8"?>
<svg xmlns="http://www.w3.org/2000/svg" xmlns:xlink="http://www.w3.org/1999/xlink" width="255.119pt" height="141.73pt" viewBox="0 0 255.119 141.73" version="1.1">
<g id="surface1">
<path style=" stroke:none;fill-rule:nonzero;fill:rgb(50%,79.998779%,15.684509%);fill-opacity:1;" d="M 70.210938 99.292969 L 30.667969 99.292969 L 30.667969 53.746094 L 70.210938 53.746094 Z M 70.210938 99.292969 "/>
<path style=" stroke:none;fill-rule:nonzero;fill:rgb(44.265747%,38.195801%,61.529541%);fill-opacity:1;" d="M 93.304688 72.339844 L 93.304688 87.652344 L 89.332031 87.652344 L 89.332031 55.390625 L 106.65625 55.390625 L 106.65625 59.199219 L 93.304688 59.199219 L 93.304688 68.53125 "/>
<path style=" stroke:none;fill-rule:nonzero;fill:rgb(44.265747%,38.195801%,61.529541%);fill-opacity:1;" d="M 112.175781 79.589844 L 112.175781 55.390625 L 116.152344 55.390625 L 116.152344 78.710938 C 116.152344 80.296875 116.671875 81.566406 117.71875 82.515625 C 118.769531 83.460938 120.101562 83.933594 121.714844 83.933594 L 121.714844 87.738281 C 119.152344 87.738281 116.960938 87.027344 115.148438 85.605469 C 113.164062 84.074219 112.175781 82.066406 112.175781 79.589844 "/>
<path style=" stroke:none;fill-rule:nonzero;fill:rgb(44.265747%,38.195801%,61.529541%);fill-opacity:1;" d="M 141.59375 66.5625 L 136.863281 66.5625 C 135.511719 66.5625 134.394531 67.078125 133.507812 68.113281 C 132.621094 69.144531 132.179688 70.34375 132.179688 71.710938 L 132.179688 78.867188 C 132.179688 80.234375 132.621094 81.433594 133.507812 82.464844 C 134.394531 83.496094 135.511719 84.011719 136.863281 84.011719 C 138.242188 84.011719 139.382812 83.484375 140.285156 82.421875 C 141.15625 81.445312 141.59375 80.261719 141.59375 78.867188 Z M 143.558594 84.765625 L 143.351562 85.015625 C 141.84375 86.832031 139.683594 87.738281 136.863281 87.738281 C 134.546875 87.738281 132.527344 86.964844 130.796875 85.414062 C 129.066406 83.867188 128.203125 81.933594 128.203125 79.621094 L 128.203125 70.914062 C 128.203125 68.628906 129.082031 66.6875 130.839844 65.097656 C 132.539062 63.59375 134.546875 62.839844 136.863281 62.839844 L 145.570312 62.839844 L 145.570312 78.867188 C 145.570312 80.429688 146.113281 81.683594 147.199219 82.632812 C 148.203125 83.550781 149.5 84.011719 151.09375 84.011719 L 151.09375 87.738281 C 147.796875 87.738281 145.285156 86.746094 143.558594 84.765625 "/>
<path style=" stroke:none;fill-rule:nonzero;fill:rgb(44.265747%,38.195801%,61.529541%);fill-opacity:1;" d="M 170.382812 84.765625 C 168.652344 86.746094 166.417969 87.738281 163.6875 87.738281 C 161.34375 87.738281 159.332031 86.96875 157.660156 85.433594 C 155.902344 83.875 155.023438 81.933594 155.023438 79.621094 L 155.023438 62.921875 L 158.996094 62.921875 L 158.996094 78.867188 C 158.996094 80.234375 159.441406 81.433594 160.339844 82.464844 C 161.230469 83.496094 162.347656 84.011719 163.6875 84.011719 C 165.050781 84.011719 166.183594 83.484375 167.074219 82.421875 C 167.9375 81.445312 168.371094 80.261719 168.371094 78.867188 L 168.371094 62.921875 L 172.347656 62.921875 L 172.347656 78.867188 C 172.347656 80.234375 172.792969 81.433594 173.6875 82.464844 C 174.578125 83.496094 175.695312 84.011719 177.035156 84.011719 C 178.371094 84.011719 179.484375 83.496094 180.382812 82.464844 C 181.273438 81.433594 181.722656 80.234375 181.722656 78.867188 L 181.722656 62.921875 L 185.695312 62.921875 L 185.695312 79.621094 C 185.695312 81.933594 184.839844 83.867188 183.121094 85.414062 C 181.40625 86.964844 179.375 87.738281 177.035156 87.738281 C 174.328125 87.738281 172.109375 86.746094 170.382812 84.765625 "/>
<path style=" stroke:none;fill-rule:nonzero;fill:rgb(44.265747%,38.195801%,61.529541%);fill-opacity:1;" d="M 193.6875 62.546875 L 197.664062 62.546875 L 197.664062 87.652344 L 193.6875 87.652344 Z M 193.6875 55.390625 L 197.664062 55.390625 L 197.664062 59.199219 L 193.6875 59.199219 Z M 193.6875 55.390625 "/>
<path style=" stroke:none;fill-rule:nonzero;fill:rgb(44.265747%,38.195801%,61.529541%);fill-opacity:1;" d="M 218.585938 66.5625 L 213.855469 66.5625 C 212.503906 66.5625 211.386719 67.078125 210.496094 68.113281 C 209.613281 69.144531 209.171875 70.34375 209.171875 71.710938 L 209.171875 78.867188 C 209.171875 80.234375 209.613281 81.433594 210.496094 82.464844 C 211.386719 83.496094 212.503906 84.011719 213.855469 84.011719 C 215.234375 84.011719 216.375 83.484375 217.273438 82.421875 C 218.144531 81.445312 218.585938 80.261719 218.585938 78.867188 Z M 220.550781 84.765625 L 220.34375 85.015625 C 218.835938 86.832031 216.675781 87.738281 213.855469 87.738281 C 211.539062 87.738281 209.515625 86.964844 207.789062 85.414062 C 206.058594 83.867188 205.191406 81.933594 205.191406 79.621094 L 205.191406 70.914062 C 205.191406 68.628906 206.070312 66.6875 207.828125 65.097656 C 209.53125 63.59375 211.539062 62.839844 213.855469 62.839844 L 222.558594 62.839844 L 222.558594 78.867188 C 222.558594 80.429688 223.105469 81.683594 224.1875 82.632812 C 225.191406 83.550781 226.492188 84.011719 228.082031 84.011719 L 228.082031 87.738281 C 224.789062 87.738281 222.28125 86.746094 220.550781 84.765625 "/>
<path style=" stroke:none;fill-rule:nonzero;fill:rgb(100%,100%,100%);fill-opacity:1;" d="M 38.742188 85.949219 L 38.742188 96.175781 L 36.089844 96.175781 L 36.089844 74.632812 L 47.652344 74.632812 L 47.652344 77.175781 L 38.742188 77.175781 L 38.742188 83.40625 "/>
<path style=" stroke:none;fill-rule:nonzero;fill:rgb(100%,100%,100%);fill-opacity:1;" d="M 39.296875 85.371094 C 39.644531 84.34375 43.824219 82.316406 46.105469 85.515625 C 46.105469 85.515625 43.257812 87.636719 39.335938 86.09375 C 40.484375 85.226562 42.730469 85.15625 42.730469 85.15625 C 42.730469 85.15625 40.761719 85.113281 39.296875 85.371094 "/>
<path style=" stroke:none;fill-rule:nonzero;fill:rgb(50%,79.998779%,15.684509%);fill-opacity:1;" d="M 94.222656 71.039062 C 94.722656 69.550781 100.769531 66.621094 104.070312 71.242188 C 104.070312 71.242188 99.949219 74.308594 94.28125 72.082031 C 95.941406 70.824219 99.183594 70.722656 99.183594 70.722656 C 99.183594 70.722656 96.332031 70.660156 94.222656 71.039062 "/>
<path style=" stroke:none;fill-rule:nonzero;fill:rgb(50%,79.998779%,15.684509%);fill-opacity:1;" d="M 89.539062 92.375 L 89.539062 97.066406 L 88.882812 97.066406 L 88.882812 92.375 L 87.777344 92.375 L 87.777344 91.769531 L 90.640625 91.769531 L 90.640625 92.375 Z M 89.539062 92.375 "/>
<path style=" stroke:none;fill-rule:nonzero;fill:rgb(50%,79.998779%,15.684509%);fill-opacity:1;" d="M 94.035156 96.589844 C 93.75 96.917969 93.382812 97.082031 92.933594 97.082031 C 92.546875 97.082031 92.214844 96.953125 91.9375 96.703125 C 91.648438 96.445312 91.503906 96.125 91.503906 95.742188 L 91.503906 92.988281 L 92.160156 92.988281 L 92.160156 95.617188 C 92.160156 95.84375 92.234375 96.042969 92.382812 96.210938 C 92.527344 96.382812 92.710938 96.464844 92.933594 96.464844 C 93.15625 96.464844 93.34375 96.378906 93.492188 96.203125 C 93.632812 96.042969 93.707031 95.847656 93.707031 95.617188 L 93.707031 92.988281 L 94.359375 92.988281 L 94.359375 95.617188 C 94.359375 95.84375 94.433594 96.042969 94.582031 96.210938 C 94.726562 96.382812 94.910156 96.464844 95.132812 96.464844 C 95.351562 96.464844 95.535156 96.382812 95.683594 96.210938 C 95.832031 96.042969 95.90625 95.84375 95.90625 95.617188 L 95.90625 92.988281 L 96.558594 92.988281 L 96.558594 95.742188 C 96.558594 96.125 96.421875 96.441406 96.136719 96.699219 C 95.851562 96.953125 95.519531 97.082031 95.132812 97.082031 C 94.6875 97.082031 94.320312 96.917969 94.035156 96.589844 "/>
<path style=" stroke:none;fill-rule:nonzero;fill:rgb(50%,79.998779%,15.684509%);fill-opacity:1;" d="M 100.03125 94.4375 C 100.03125 94.214844 99.957031 94.015625 99.808594 93.84375 C 99.664062 93.675781 99.476562 93.589844 99.257812 93.589844 C 99.039062 93.589844 98.851562 93.675781 98.707031 93.84375 C 98.558594 94.015625 98.484375 94.214844 98.484375 94.4375 L 98.484375 95.617188 C 98.484375 95.84375 98.558594 96.042969 98.707031 96.210938 C 98.851562 96.382812 99.039062 96.464844 99.257812 96.464844 C 99.476562 96.464844 99.664062 96.382812 99.808594 96.210938 C 99.957031 96.042969 100.03125 95.84375 100.03125 95.617188 Z M 99.257812 97.082031 C 98.871094 97.082031 98.542969 96.953125 98.265625 96.703125 C 97.972656 96.445312 97.832031 96.125 97.832031 95.742188 L 97.832031 94.308594 C 97.832031 93.925781 97.972656 93.605469 98.265625 93.347656 C 98.542969 93.101562 98.871094 92.976562 99.257812 92.976562 C 99.644531 92.976562 99.976562 93.101562 100.261719 93.355469 C 100.546875 93.609375 100.6875 93.925781 100.6875 94.308594 L 100.6875 95.742188 C 100.6875 96.125 100.546875 96.441406 100.261719 96.699219 C 99.976562 96.953125 99.644531 97.082031 99.257812 97.082031 "/>
<path style=" stroke:none;fill-rule:nonzero;fill:rgb(50%,79.998779%,15.684509%);fill-opacity:1;" d="M 102.257812 91.75 L 102.914062 91.75 L 102.914062 92.375 L 102.257812 92.375 Z M 102.914062 96.949219 C 102.914062 97.367188 102.753906 97.707031 102.433594 97.964844 C 102.132812 98.203125 101.769531 98.324219 101.339844 98.324219 L 101.339844 97.6875 C 101.605469 97.6875 101.820312 97.609375 101.996094 97.449219 C 102.171875 97.292969 102.257812 97.082031 102.257812 96.820312 L 102.257812 92.933594 L 102.914062 92.933594 Z M 102.914062 96.949219 "/>
<path style=" stroke:none;fill-rule:nonzero;fill:rgb(50%,79.998779%,15.684509%);fill-opacity:1;" d="M 108.796875 94.398438 C 108.796875 94.167969 108.726562 93.964844 108.582031 93.792969 C 108.4375 93.621094 108.25 93.535156 108.027344 93.535156 C 107.800781 93.535156 107.613281 93.621094 107.472656 93.792969 C 107.324219 93.964844 107.253906 94.167969 107.253906 94.398438 L 107.253906 95.589844 C 107.253906 95.820312 107.324219 96.019531 107.46875 96.183594 C 107.613281 96.363281 107.800781 96.453125 108.027344 96.453125 C 108.25 96.453125 108.4375 96.363281 108.585938 96.183594 C 108.726562 96.019531 108.796875 95.820312 108.796875 95.589844 Z M 109.128906 96.585938 L 109.109375 96.605469 C 108.792969 96.921875 108.429688 97.082031 108.027344 97.082031 C 107.636719 97.082031 107.296875 96.949219 107.019531 96.691406 C 106.738281 96.429688 106.597656 96.109375 106.597656 95.722656 L 106.597656 94.265625 C 106.597656 93.878906 106.738281 93.558594 107.023438 93.300781 C 107.304688 93.042969 107.640625 92.914062 108.027344 92.914062 C 108.308594 92.914062 108.5625 92.984375 108.796875 93.128906 L 108.796875 91.742188 L 109.453125 91.742188 L 109.453125 95.589844 C 109.453125 95.851562 109.539062 96.0625 109.710938 96.21875 C 109.886719 96.375 110.105469 96.453125 110.371094 96.453125 L 110.371094 97.082031 C 109.828125 97.082031 109.414062 96.917969 109.128906 96.589844 Z M 109.128906 96.585938 "/>
<path style=" stroke:none;fill-rule:nonzero;fill:rgb(50%,79.998779%,15.684509%);fill-opacity:1;" d="M 113.09375 94.4375 C 113.09375 94.214844 113.023438 94.015625 112.875 93.84375 C 112.730469 93.675781 112.542969 93.589844 112.324219 93.589844 C 112.101562 93.589844 111.917969 93.675781 111.773438 93.84375 C 111.625 94.015625 111.550781 94.214844 111.550781 94.4375 L 111.550781 95.617188 C 111.550781 95.84375 111.625 96.042969 111.773438 96.210938 C 111.917969 96.382812 112.101562 96.464844 112.324219 96.464844 C 112.542969 96.464844 112.730469 96.382812 112.875 96.210938 C 113.023438 96.042969 113.09375 95.84375 113.09375 95.617188 Z M 112.324219 97.082031 C 111.9375 97.082031 111.605469 96.953125 111.328125 96.703125 C 111.039062 96.445312 110.894531 96.125 110.894531 95.742188 L 110.894531 94.308594 C 110.894531 93.925781 111.039062 93.605469 111.328125 93.347656 C 111.605469 93.101562 111.9375 92.976562 112.324219 92.976562 C 112.710938 92.976562 113.042969 93.101562 113.328125 93.355469 C 113.609375 93.609375 113.75 93.925781 113.75 94.308594 L 113.75 95.742188 C 113.75 96.125 113.609375 96.441406 113.328125 96.699219 C 113.042969 96.953125 112.710938 97.082031 112.324219 97.082031 "/>
<path style=" stroke:none;fill-rule:nonzero;fill:rgb(50%,79.998779%,15.684509%);fill-opacity:1;" d="M 117.195312 94.402344 C 117.195312 94.175781 117.125 93.980469 116.988281 93.824219 C 116.847656 93.667969 116.664062 93.589844 116.433594 93.589844 C 116.242188 93.589844 116.066406 93.65625 115.910156 93.789062 C 115.753906 93.921875 115.675781 94.085938 115.675781 94.273438 C 115.675781 94.402344 115.722656 94.507812 115.816406 94.589844 C 115.910156 94.671875 116.023438 94.714844 116.152344 94.714844 L 116.722656 94.714844 C 117.03125 94.714844 117.300781 94.816406 117.523438 95.023438 C 117.75 95.226562 117.863281 95.480469 117.863281 95.785156 C 117.863281 96.160156 117.722656 96.472656 117.4375 96.714844 C 117.15625 96.957031 116.820312 97.082031 116.433594 97.082031 C 116.03125 97.082031 115.691406 96.941406 115.417969 96.667969 C 115.144531 96.390625 115.007812 96.050781 115.007812 95.644531 L 115.675781 95.644531 C 115.675781 95.875 115.746094 96.066406 115.886719 96.21875 C 116.027344 96.375 116.210938 96.453125 116.433594 96.453125 C 116.636719 96.453125 116.8125 96.390625 116.964844 96.265625 C 117.117188 96.140625 117.195312 95.976562 117.195312 95.78125 C 117.195312 95.652344 117.144531 95.546875 117.046875 95.457031 C 116.953125 95.371094 116.839844 95.328125 116.710938 95.328125 L 116.136719 95.328125 C 115.835938 95.328125 115.570312 95.226562 115.34375 95.023438 C 115.121094 94.824219 115.007812 94.570312 115.007812 94.273438 C 115.007812 93.902344 115.15625 93.585938 115.449219 93.335938 C 115.726562 93.097656 116.058594 92.976562 116.433594 92.976562 C 116.847656 92.976562 117.191406 93.113281 117.460938 93.382812 C 117.726562 93.65625 117.863281 93.996094 117.863281 94.410156 Z M 117.195312 94.402344 "/>
<path style=" stroke:none;fill-rule:nonzero;fill:rgb(50%,79.998779%,15.684509%);fill-opacity:1;" d="M 120.015625 93.554688 L 120.015625 95.59375 C 120.015625 95.855469 120.101562 96.0625 120.277344 96.21875 C 120.449219 96.375 120.671875 96.453125 120.941406 96.453125 L 120.941406 97.082031 C 120.511719 97.082031 120.144531 96.964844 119.84375 96.730469 C 119.523438 96.472656 119.359375 96.136719 119.359375 95.722656 L 119.359375 93.554688 L 119.035156 93.554688 L 119.035156 92.929688 L 119.359375 92.929688 L 119.359375 91.75 L 120.015625 91.75 L 120.015625 92.929688 L 120.941406 92.929688 L 120.941406 93.554688 Z M 120.015625 93.554688 "/>
<path style=" stroke:none;fill-rule:nonzero;fill:rgb(50%,79.998779%,15.684509%);fill-opacity:1;" d="M 124.242188 93.589844 L 123.464844 93.589844 C 123.242188 93.589844 123.058594 93.675781 122.910156 93.84375 C 122.765625 94.015625 122.691406 94.214844 122.691406 94.4375 L 122.691406 95.617188 C 122.691406 95.84375 122.765625 96.042969 122.910156 96.210938 C 123.058594 96.382812 123.242188 96.464844 123.464844 96.464844 C 123.691406 96.464844 123.878906 96.378906 124.027344 96.203125 C 124.171875 96.042969 124.242188 95.847656 124.242188 95.617188 Z M 124.566406 96.589844 L 124.535156 96.632812 C 124.285156 96.929688 123.929688 97.082031 123.464844 97.082031 C 123.082031 97.082031 122.75 96.953125 122.464844 96.699219 C 122.179688 96.445312 122.035156 96.125 122.035156 95.742188 L 122.035156 94.308594 C 122.035156 93.929688 122.179688 93.613281 122.472656 93.347656 C 122.753906 93.101562 123.082031 92.976562 123.464844 92.976562 L 124.898438 92.976562 L 124.898438 95.617188 C 124.898438 95.875 124.988281 96.082031 125.167969 96.238281 C 125.335938 96.390625 125.546875 96.464844 125.808594 96.464844 L 125.808594 97.082031 C 125.265625 97.082031 124.851562 96.917969 124.566406 96.589844 "/>
<path style=" stroke:none;fill-rule:nonzero;fill:rgb(50%,79.998779%,15.684509%);fill-opacity:1;" d="M 128.988281 96.589844 C 128.707031 96.917969 128.335938 97.082031 127.886719 97.082031 C 127.5 97.082031 127.167969 96.953125 126.890625 96.703125 C 126.601562 96.445312 126.457031 96.125 126.457031 95.742188 L 126.457031 92.988281 L 127.113281 92.988281 L 127.113281 95.617188 C 127.113281 95.84375 127.1875 96.042969 127.335938 96.210938 C 127.480469 96.382812 127.667969 96.464844 127.886719 96.464844 C 128.109375 96.464844 128.296875 96.378906 128.445312 96.203125 C 128.589844 96.042969 128.660156 95.847656 128.660156 95.617188 L 128.660156 92.988281 L 129.3125 92.988281 L 129.3125 95.617188 C 129.3125 95.84375 129.386719 96.042969 129.535156 96.210938 C 129.683594 96.382812 129.867188 96.464844 130.085938 96.464844 C 130.308594 96.464844 130.492188 96.382812 130.636719 96.210938 C 130.785156 96.042969 130.859375 95.84375 130.859375 95.617188 L 130.859375 92.988281 L 131.515625 92.988281 L 131.515625 95.742188 C 131.515625 96.125 131.375 96.441406 131.089844 96.699219 C 130.808594 96.953125 130.472656 97.082031 130.085938 97.082031 C 129.640625 97.082031 129.273438 96.917969 128.988281 96.589844 "/>
<path style=" stroke:none;fill-rule:nonzero;fill:rgb(50%,79.998779%,15.684509%);fill-opacity:1;" d="M 134.210938 97.082031 C 133.824219 97.082031 133.496094 96.953125 133.21875 96.703125 C 132.929688 96.445312 132.785156 96.125 132.785156 95.742188 L 132.785156 94.308594 C 132.785156 93.925781 132.929688 93.605469 133.21875 93.347656 C 133.496094 93.101562 133.824219 92.976562 134.210938 92.976562 C 134.621094 92.976562 134.957031 93.113281 135.222656 93.386719 C 135.488281 93.660156 135.625 94 135.640625 94.410156 L 134.992188 94.410156 C 134.953125 94.1875 134.875 93.996094 134.75 93.84375 C 134.609375 93.675781 134.429688 93.589844 134.210938 93.589844 C 133.992188 93.589844 133.808594 93.675781 133.660156 93.84375 C 133.511719 94.015625 133.441406 94.214844 133.441406 94.4375 L 133.441406 95.617188 C 133.441406 95.84375 133.511719 96.042969 133.660156 96.210938 C 133.808594 96.382812 133.992188 96.464844 134.210938 96.464844 C 134.429688 96.464844 134.609375 96.382812 134.75 96.210938 C 134.875 96.058594 134.953125 95.871094 134.992188 95.644531 L 135.640625 95.644531 C 135.625 96.054688 135.488281 96.398438 135.222656 96.671875 C 134.957031 96.945312 134.621094 97.082031 134.210938 97.082031 "/>
<path style=" stroke:none;fill-rule:nonzero;fill:rgb(50%,79.998779%,15.684509%);fill-opacity:1;" d="M 138.953125 93.589844 L 138.171875 93.589844 C 137.949219 93.589844 137.765625 93.675781 137.617188 93.84375 C 137.472656 94.015625 137.398438 94.214844 137.398438 94.4375 L 137.398438 95.617188 C 137.398438 95.84375 137.472656 96.042969 137.617188 96.210938 C 137.765625 96.382812 137.949219 96.464844 138.171875 96.464844 C 138.398438 96.464844 138.585938 96.378906 138.734375 96.203125 C 138.878906 96.042969 138.953125 95.847656 138.953125 95.617188 Z M 139.273438 96.589844 L 139.242188 96.632812 C 138.992188 96.929688 138.636719 97.082031 138.171875 97.082031 C 137.789062 97.082031 137.457031 96.953125 137.171875 96.699219 C 136.886719 96.445312 136.746094 96.125 136.746094 95.742188 L 136.746094 94.308594 C 136.746094 93.929688 136.886719 93.613281 137.179688 93.347656 C 137.460938 93.101562 137.789062 92.976562 138.171875 92.976562 L 139.605469 92.976562 L 139.605469 95.617188 C 139.605469 95.875 139.695312 96.082031 139.875 96.238281 C 140.042969 96.390625 140.253906 96.464844 140.515625 96.464844 L 140.515625 97.082031 C 139.972656 97.082031 139.558594 96.917969 139.273438 96.589844 "/>
<path style=" stroke:none;fill-rule:nonzero;fill:rgb(50%,79.998779%,15.684509%);fill-opacity:1;" d="M 146.46875 95.652344 L 146.46875 94.460938 C 146.46875 94.234375 146.398438 94.035156 146.25 93.863281 C 146.101562 93.691406 145.917969 93.605469 145.699219 93.605469 C 145.476562 93.605469 145.292969 93.691406 145.144531 93.863281 C 144.996094 94.035156 144.925781 94.234375 144.925781 94.460938 L 144.925781 95.652344 C 144.925781 95.882812 144.996094 96.082031 145.140625 96.246094 C 145.285156 96.425781 145.472656 96.515625 145.699219 96.515625 C 145.921875 96.515625 146.109375 96.425781 146.253906 96.246094 C 146.398438 96.082031 146.46875 95.882812 146.46875 95.652344 M 147.125 95.789062 C 147.125 96.175781 146.984375 96.5 146.699219 96.757812 C 146.414062 97.015625 146.078125 97.144531 145.691406 97.144531 C 145.414062 97.144531 145.160156 97.070312 144.925781 96.929688 L 144.925781 98.300781 L 144.269531 98.300781 L 144.269531 94.460938 C 144.269531 94.203125 144.183594 93.996094 144.007812 93.839844 C 143.832031 93.683594 143.613281 93.605469 143.351562 93.605469 L 143.351562 92.976562 C 143.894531 92.976562 144.308594 93.140625 144.59375 93.464844 C 144.882812 93.140625 145.25 92.976562 145.699219 92.976562 C 146.082031 92.976562 146.417969 93.105469 146.699219 93.363281 C 146.984375 93.621094 147.125 93.941406 147.125 94.328125 Z M 147.125 95.789062 "/>
<path style=" stroke:none;fill-rule:nonzero;fill:rgb(50%,79.998779%,15.684509%);fill-opacity:1;" d="M 150.546875 93.589844 L 149.769531 93.589844 C 149.542969 93.589844 149.359375 93.675781 149.214844 93.84375 C 149.066406 94.015625 148.996094 94.214844 148.996094 94.4375 L 148.996094 95.617188 C 148.996094 95.84375 149.066406 96.042969 149.214844 96.210938 C 149.359375 96.382812 149.542969 96.464844 149.769531 96.464844 C 149.996094 96.464844 150.183594 96.378906 150.332031 96.203125 C 150.476562 96.042969 150.546875 95.847656 150.546875 95.617188 Z M 150.871094 96.589844 L 150.835938 96.632812 C 150.589844 96.929688 150.234375 97.082031 149.769531 97.082031 C 149.386719 97.082031 149.054688 96.953125 148.769531 96.699219 C 148.484375 96.445312 148.339844 96.125 148.339844 95.742188 L 148.339844 94.308594 C 148.339844 93.929688 148.484375 93.613281 148.773438 93.347656 C 149.054688 93.101562 149.386719 92.976562 149.769531 92.976562 L 151.203125 92.976562 L 151.203125 95.617188 C 151.203125 95.875 151.292969 96.082031 151.472656 96.238281 C 151.636719 96.390625 151.851562 96.464844 152.113281 96.464844 L 152.113281 97.082031 C 151.570312 97.082031 151.15625 96.917969 150.871094 96.589844 "/>
<path style=" stroke:none;fill-rule:nonzero;fill:rgb(50%,79.998779%,15.684509%);fill-opacity:1;" d="M 155.546875 95.652344 L 155.546875 94.460938 C 155.546875 94.234375 155.476562 94.035156 155.328125 93.863281 C 155.179688 93.691406 154.996094 93.605469 154.777344 93.605469 C 154.554688 93.605469 154.371094 93.691406 154.222656 93.863281 C 154.074219 94.035156 154.003906 94.234375 154.003906 94.460938 L 154.003906 95.652344 C 154.003906 95.882812 154.074219 96.082031 154.21875 96.246094 C 154.363281 96.425781 154.550781 96.515625 154.777344 96.515625 C 155 96.515625 155.1875 96.425781 155.332031 96.246094 C 155.476562 96.082031 155.546875 95.882812 155.546875 95.652344 M 156.203125 95.789062 C 156.203125 96.175781 156.0625 96.5 155.777344 96.757812 C 155.492188 97.015625 155.15625 97.144531 154.769531 97.144531 C 154.492188 97.144531 154.238281 97.070312 154.003906 96.929688 L 154.003906 98.300781 L 153.347656 98.300781 L 153.347656 94.460938 C 153.347656 94.203125 153.261719 93.996094 153.085938 93.839844 C 152.910156 93.683594 152.691406 93.605469 152.429688 93.605469 L 152.429688 92.976562 C 152.972656 92.976562 153.386719 93.140625 153.671875 93.464844 C 153.960938 93.140625 154.328125 92.976562 154.777344 92.976562 C 155.160156 92.976562 155.496094 93.105469 155.777344 93.363281 C 156.0625 93.621094 156.203125 93.941406 156.203125 94.328125 Z M 156.203125 95.789062 "/>
<path style=" stroke:none;fill-rule:nonzero;fill:rgb(50%,79.998779%,15.684509%);fill-opacity:1;" d="M 157.5 92.929688 L 158.15625 92.929688 L 158.15625 97.066406 L 157.5 97.066406 Z M 157.5 91.75 L 158.15625 91.75 L 158.15625 92.375 L 157.5 92.375 Z M 157.5 91.75 "/>
<path style=" stroke:none;fill-rule:nonzero;fill:rgb(50%,79.998779%,15.684509%);fill-opacity:1;" d="M 161.632812 94.4375 C 161.632812 94.214844 161.558594 94.015625 161.410156 93.84375 C 161.265625 93.675781 161.078125 93.589844 160.859375 93.589844 C 160.640625 93.589844 160.453125 93.675781 160.308594 93.84375 C 160.160156 94.015625 160.085938 94.214844 160.085938 94.4375 L 160.085938 94.714844 L 161.632812 94.714844 Z M 160.085938 95.328125 L 160.085938 95.617188 C 160.085938 95.84375 160.160156 96.042969 160.308594 96.210938 C 160.453125 96.382812 160.640625 96.464844 160.859375 96.464844 C 161.074219 96.464844 161.253906 96.382812 161.398438 96.210938 C 161.523438 96.058594 161.601562 95.871094 161.640625 95.644531 L 162.289062 95.644531 C 162.273438 96.054688 162.136719 96.398438 161.871094 96.671875 C 161.605469 96.945312 161.269531 97.082031 160.859375 97.082031 C 160.472656 97.082031 160.144531 96.953125 159.867188 96.703125 C 159.574219 96.445312 159.433594 96.125 159.433594 95.742188 L 159.433594 94.308594 C 159.433594 93.925781 159.574219 93.605469 159.867188 93.347656 C 160.144531 93.101562 160.472656 92.976562 160.859375 92.976562 C 161.246094 92.976562 161.578125 93.101562 161.863281 93.355469 C 162.148438 93.609375 162.289062 93.925781 162.289062 94.308594 L 162.289062 95.328125 Z M 160.085938 95.328125 "/>
<path style=" stroke:none;fill-rule:nonzero;fill:rgb(50%,79.998779%,15.684509%);fill-opacity:1;" d="M 165.082031 93.605469 C 164.820312 93.605469 164.601562 93.679688 164.425781 93.835938 C 164.25 93.988281 164.164062 94.191406 164.164062 94.449219 L 164.164062 97.066406 L 163.507812 97.066406 L 163.507812 92.988281 L 164.164062 92.988281 L 164.164062 93.191406 C 164.40625 93.058594 164.714844 92.988281 165.082031 92.988281 Z M 165.082031 93.605469 "/>
<path style=" stroke:none;fill-rule:nonzero;fill:rgb(50%,79.998779%,15.684509%);fill-opacity:1;" d="M 167.660156 97.082031 C 167.273438 97.082031 166.945312 96.953125 166.667969 96.703125 C 166.378906 96.445312 166.234375 96.125 166.234375 95.742188 L 166.234375 92.988281 L 166.890625 92.988281 L 166.890625 95.617188 C 166.890625 95.84375 166.964844 96.042969 167.109375 96.210938 C 167.257812 96.382812 167.441406 96.464844 167.660156 96.464844 C 167.882812 96.464844 168.066406 96.382812 168.214844 96.210938 C 168.359375 96.042969 168.433594 95.84375 168.433594 95.617188 L 168.433594 92.988281 L 169.089844 92.988281 L 169.089844 95.742188 C 169.089844 96.125 168.949219 96.441406 168.664062 96.699219 C 168.382812 96.953125 168.046875 97.082031 167.660156 97.082031 "/>
<path style=" stroke:none;fill-rule:nonzero;fill:rgb(50%,79.998779%,15.684509%);fill-opacity:1;" d="M 99.246094 92.484375 C 99.023438 92.242188 99.097656 90.84375 100.273438 90.703125 C 100.273438 90.703125 100.421875 91.765625 99.441406 92.578125 C 99.382812 92.148438 99.6875 91.546875 99.6875 91.546875 C 99.6875 91.546875 99.390625 92.058594 99.246094 92.484375 "/>
<path style=" stroke:none;fill-rule:nonzero;fill:rgb(44.265747%,38.195801%,61.529541%);fill-opacity:1;" d="M 70.210938 99.339844 L 66.460938 99.339844 L 66.460938 53.796875 L 70.210938 53.796875 Z M 70.210938 99.339844 "/>
</g>
</svg>
